<?xml version="1.0" standalone="no"?>
<!DOCTYPE svg PUBLIC "-//W3C//DTD SVG 20010904//EN"
 "http://www.w3.org/TR/2001/REC-SVG-20010904/DTD/svg10.dtd">
<svg version="1.0" xmlns="http://www.w3.org/2000/svg"
 width="792.000000pt" height="792.000000pt" viewBox="0 0 792.000000 792.000000"
 preserveAspectRatio="xMidYMid meet">
<metadata>
Created by potrace 1.14, written by Peter Selinger 2001-2017
</metadata>
<g transform="translate(0.000000,792.000000) scale(0.100000,-0.100000)"
fill="#000000" stroke="none">
<path d="M3920 7913 c-8 -3 -37 -28 -64 -55 -52 -52 -195 -163 -233 -181 -13
-5 -23 -14 -23 -19 0 -4 -5 -8 -11 -8 -7 0 -28 -10 -48 -22 -20 -13 -38 -23
-41 -24 -3 0 -52 -24 -110 -51 -58 -28 -134 -62 -170 -76 -124 -48 -207 -78
-226 -81 -10 -2 -31 -9 -46 -15 -16 -6 -28 -8 -28 -5 0 4 -6 2 -12 -4 -11 -8
-62 -23 -85 -24 -5 0 -24 -6 -43 -13 -36 -14 -218 -59 -280 -70 -19 -3 -53
-11 -75 -17 -22 -6 -49 -12 -60 -13 -11 -1 -33 -5 -50 -8 -16 -3 -43 -9 -60
-11 -16 -3 -40 -8 -52 -10 -11 -3 -43 -8 -70 -12 -26 -3 -57 -8 -68 -11 -11
-2 -38 -6 -60 -9 -22 -3 -51 -8 -65 -10 -14 -3 -41 -7 -60 -9 -32 -3 -51 -6
-165 -21 -22 -2 -56 -6 -75 -8 -19 -2 -60 -7 -90 -10 -78 -9 -132 -14 -235
-21 -49 -3 -105 -8 -122 -10 -18 -3 -81 -7 -140 -10 -199 -10 -219 -15 -248
-58 -8 -12 -17 -40 -20 -62 -4 -22 -9 -49 -13 -60 -8 -25 -6 -19 -16 -85 -4
-30 -9 -62 -11 -70 -2 -8 -6 -33 -9 -55 -4 -23 -9 -52 -11 -65 -3 -14 -7 -46
-10 -71 -2 -26 -6 -60 -9 -75 -3 -16 -7 -56 -11 -89 -3 -33 -8 -80 -10 -105
-6 -55 -12 -134 -22 -265 -10 -131 -9 -792 1 -920 4 -55 9 -120 11 -145 7 -82
14 -164 20 -205 3 -22 7 -62 10 -90 4 -27 8 -62 11 -77 5 -36 11 -72 19 -128
12 -79 16 -103 37 -210 11 -58 22 -116 24 -130 6 -31 28 -124 60 -255 35 -138
37 -146 84 -300 26 -86 26 -87 33 -105 3 -8 19 -55 35 -105 17 -49 37 -108 45
-130 68 -177 111 -282 160 -385 17 -36 31 -67 31 -70 1 -6 143 -289 156 -310
6 -8 42 -71 82 -140 39 -69 93 -158 120 -198 26 -41 48 -76 48 -78 0 -3 5 -10
10 -17 22 -27 150 -208 150 -213 0 -3 6 -11 13 -18 6 -7 23 -28 37 -46 32 -42
116 -149 138 -175 9 -11 39 -47 67 -80 168 -202 409 -443 655 -655 80 -69 163
-139 185 -155 22 -16 63 -48 92 -70 121 -94 129 -100 328 -234 83 -56 155
-105 160 -109 6 -4 17 -11 25 -15 24 -12 53 -30 87 -54 17 -13 34 -23 37 -23
4 0 25 -12 49 -27 23 -15 56 -34 72 -44 185 -101 186 -101 222 -94 20 3 53 17
74 31 21 13 41 24 43 24 3 0 67 37 142 82 76 46 149 90 163 98 87 52 364 241
369 253 2 4 10 7 17 7 7 0 15 3 17 8 2 4 37 33 79 64 41 31 107 82 145 113 38
31 87 70 109 88 22 18 53 44 70 59 16 15 50 44 74 65 137 118 404 386 512 514
24 29 51 60 60 68 8 9 33 38 55 66 44 56 74 92 89 109 6 6 22 27 35 46 13 19
27 37 30 40 3 3 17 21 30 40 13 19 27 37 30 40 7 5 147 207 165 238 6 9 19 30
30 47 25 36 42 65 51 85 4 8 11 17 14 20 7 5 29 43 93 160 17 30 35 58 41 62
6 4 8 8 3 8 -4 0 3 17 16 38 23 36 177 346 177 356 0 2 14 35 31 73 17 37 39
87 49 109 11 23 22 54 26 68 3 14 10 29 15 32 5 3 9 15 9 28 0 12 3 26 8 30 4
4 7 11 8 14 0 4 6 21 13 37 40 96 143 425 186 595 35 138 36 142 40 167 2 11
6 30 9 41 4 11 9 31 11 44 3 13 8 37 11 53 4 17 8 39 10 50 2 11 5 31 9 45 3
14 8 39 10 55 3 17 10 55 15 85 11 61 20 119 25 159 2 14 4 26 5 26 1 0 3 14
4 30 2 17 6 57 11 90 4 33 9 71 10 85 1 14 6 59 10 100 4 41 9 89 11 105 20
206 26 832 10 1065 -13 190 -16 224 -31 355 -2 17 -6 55 -10 85 -3 30 -9 73
-12 95 -9 67 -11 78 -18 130 -3 28 -8 57 -11 66 -3 9 -7 32 -9 50 -3 19 -13
74 -24 123 -29 136 -29 136 -266 151 -193 13 -222 15 -270 20 -27 2 -84 7
-125 10 -41 3 -91 8 -110 11 -19 3 -53 7 -75 9 -51 4 -120 12 -165 19 -19 3
-54 7 -77 10 -102 14 -133 18 -213 32 -47 8 -96 16 -110 19 -13 2 -42 7 -65
10 -22 3 -47 8 -56 11 -10 3 -31 6 -48 9 -17 2 -39 6 -50 10 -10 3 -32 8 -47
10 -16 2 -49 10 -74 16 -25 6 -54 13 -65 15 -11 2 -53 12 -92 23 -40 10 -73
17 -73 15 0 -3 -9 0 -21 6 -11 6 -28 13 -37 15 -37 7 -191 54 -208 63 -11 6
-23 10 -29 11 -32 2 -339 126 -365 147 -8 7 -17 12 -20 11 -18 -6 -278 156
-332 206 -16 15 -28 24 -28 22 0 -3 -19 16 -42 41 -62 66 -108 86 -158 67z"/>
</g>
</svg>
